<svg width="41" height="7" viewBox="0 0 41 7" fill="none" xmlns="http://www.w3.org/2000/svg">
<path d="M2.88529 6.07802L1.65105 3.89686H1.12093V6.07802H0V0.481445H2.10023C2.53323 0.481445 2.90148 0.558332 3.20498 0.708059C3.50848 0.861834 3.73915 1.06417 3.88887 1.3272C4.04265 1.58619 4.11549 1.87756 4.11549 2.19725C4.11549 2.5655 4.01027 2.89732 3.7958 3.19677C3.58132 3.49218 3.26568 3.69857 2.84078 3.81187L4.18024 6.08207H2.88124L2.88529 6.07802ZM1.12093 3.05514H2.05977C2.36327 3.05514 2.58988 2.9823 2.73961 2.83662C2.88934 2.69094 2.96218 2.48456 2.96218 2.22153C2.96218 1.95849 2.88934 1.76424 2.73961 1.62261C2.58988 1.48098 2.36327 1.41219 2.05977 1.41219H1.12093V3.05514Z" fill="#0B173E"/>
<path d="M9.43286 4.19639H6.18742C6.21574 4.51608 6.325 4.76698 6.52329 4.94908C6.72158 5.13118 6.96438 5.2202 7.2517 5.2202C7.66851 5.2202 7.96391 5.04216 8.14197 4.682H9.35193C9.22244 5.11095 8.97964 5.45896 8.61543 5.73414C8.25123 6.00931 7.80609 6.1469 7.27597 6.1469C6.84703 6.1469 6.46664 6.05383 6.12672 5.86363C5.78679 5.67344 5.52376 5.40635 5.33356 5.05834C5.14337 4.71032 5.05029 4.3097 5.05029 3.85647C5.05029 3.40324 5.14337 2.99453 5.32952 2.64651C5.51566 2.2985 5.7787 2.03141 6.11458 1.84526C6.45045 1.65911 6.83893 1.56604 7.27597 1.56604C7.71302 1.56604 8.07722 1.65912 8.40905 1.83717C8.74088 2.01523 9.00391 2.27826 9.18602 2.61009C9.37216 2.94596 9.46119 3.32636 9.46119 3.75935C9.46119 3.92122 9.44905 4.06285 9.42882 4.19235L9.43286 4.19639ZM8.30384 3.44371C8.29979 3.15639 8.19458 2.92573 7.99224 2.75172C7.78991 2.57772 7.53901 2.49274 7.24765 2.49274C6.96843 2.49274 6.73777 2.57772 6.54757 2.74363C6.35738 2.90954 6.24002 3.14425 6.19956 3.44371H8.30788H8.30384Z" fill="#0B173E"/>
<path d="M12.3344 5.0422L13.4554 1.63489H14.6491L13.0062 6.07411H11.6424L10.0076 1.63489H11.2094L12.3304 5.0422H12.3344Z" fill="#0B173E"/>
<path d="M16.3042 5.86766C15.9642 5.67746 15.6931 5.41038 15.4989 5.06236C15.3046 4.71435 15.2075 4.31373 15.2075 3.8605C15.2075 3.40727 15.3087 3.00665 15.507 2.65863C15.7093 2.31061 15.9804 2.04353 16.3284 1.85334C16.6765 1.66314 17.065 1.57007 17.4899 1.57007C17.9148 1.57007 18.3032 1.66314 18.6513 1.85334C18.9993 2.04353 19.2744 2.31061 19.4727 2.65863C19.6751 3.00665 19.7722 3.40727 19.7722 3.8605C19.7722 4.31373 19.671 4.71435 19.4646 5.06236C19.2583 5.41038 18.979 5.67746 18.631 5.86766C18.279 6.05785 17.8905 6.15092 17.4575 6.15092C17.0245 6.15092 16.6441 6.05785 16.3042 5.86766ZM18.0321 5.02594C18.2102 4.92882 18.3558 4.7791 18.4611 4.58081C18.5663 4.38252 18.6229 4.14377 18.6229 3.8605C18.6229 3.43964 18.5137 3.11186 18.2911 2.88524C18.0685 2.65863 17.7974 2.54532 17.4777 2.54532C17.158 2.54532 16.8869 2.65863 16.6724 2.88524C16.4579 3.11186 16.3487 3.4356 16.3487 3.8605C16.3487 4.2854 16.4539 4.60913 16.6643 4.83575C16.8748 5.06236 17.1418 5.17567 17.4615 5.17567C17.6639 5.17567 17.8541 5.12711 18.0362 5.02594H18.0321Z" fill="#0B173E"/>
<path d="M24.6081 0.481445V1.38791H23.1189V6.07802H21.998V1.38791H20.5088V0.481445H24.6121H24.6081Z" fill="#0B173E"/>
<path d="M29.719 4.19639H26.4735C26.5019 4.51608 26.6111 4.76698 26.8094 4.94908C27.0077 5.13118 27.2505 5.2202 27.5378 5.2202C27.9546 5.2202 28.25 5.04216 28.4281 4.682H29.6381C29.5086 5.11095 29.2658 5.45896 28.9016 5.73414C28.5374 6.00931 28.0922 6.1469 27.5621 6.1469C27.1332 6.1469 26.7528 6.05383 26.4128 5.86363C26.0729 5.67344 25.8099 5.40635 25.6197 5.05834C25.4295 4.71032 25.3364 4.3097 25.3364 3.85647C25.3364 3.40324 25.4295 2.99453 25.6156 2.64651C25.8018 2.2985 26.0648 2.03141 26.4007 1.84526C26.7366 1.65911 27.1251 1.56604 27.5621 1.56604C27.9992 1.56604 28.3634 1.65912 28.6952 1.83717C29.027 2.01523 29.29 2.27826 29.4721 2.61009C29.6583 2.94596 29.7473 3.32636 29.7473 3.75935C29.7473 3.92122 29.7352 4.06285 29.7149 4.19235L29.719 4.19639ZM28.59 3.44371C28.5859 3.15639 28.4807 2.92573 28.2784 2.75172C28.076 2.57772 27.8251 2.49274 27.5338 2.49274C27.2546 2.49274 27.0239 2.57772 26.8337 2.74363C26.6435 2.90954 26.5262 3.14425 26.4857 3.44371H28.594H28.59Z" fill="#0B173E"/>
<path d="M30.7631 2.65056C30.9493 2.30659 31.2082 2.03951 31.5401 1.84931C31.8719 1.65912 32.2523 1.56604 32.6772 1.56604C33.2275 1.56604 33.6848 1.70363 34.045 1.9788C34.4051 2.25398 34.6479 2.63842 34.7693 3.13616H33.5594C33.4946 2.94192 33.3854 2.79219 33.2356 2.68293C33.0819 2.57367 32.8957 2.51702 32.6691 2.51702C32.3494 2.51702 32.0945 2.63437 31.9083 2.86503C31.7222 3.09569 31.6291 3.42752 31.6291 3.85647C31.6291 4.28542 31.7222 4.60511 31.9083 4.83982C32.0945 5.07048 32.3494 5.18784 32.6691 5.18784C33.1223 5.18784 33.4177 4.9855 33.5594 4.57678H34.7693C34.6479 5.05834 34.4011 5.43873 34.0409 5.722C33.6767 6.00527 33.2235 6.1469 32.6772 6.1469C32.2482 6.1469 31.8719 6.05383 31.5401 5.86363C31.2082 5.67344 30.9493 5.40635 30.7631 5.06238C30.577 4.71841 30.4839 4.31375 30.4839 3.85647C30.4839 3.39919 30.577 2.99453 30.7631 2.65056Z" fill="#0B173E"/>
<path d="M39.1922 1.79264C39.4552 1.93832 39.6575 2.15684 39.8073 2.4401C39.9529 2.72742 40.0258 3.07139 40.0258 3.47201V6.07809H38.9048V3.62579C38.9048 3.27373 38.8158 3.00259 38.6418 2.8124C38.4638 2.62221 38.225 2.52913 37.9215 2.52913C37.618 2.52913 37.3671 2.62221 37.189 2.8124C37.011 3.00259 36.922 3.27373 36.922 3.62579V6.07809H35.801V0.14563H36.922V2.18921C37.0676 1.99497 37.2578 1.84524 37.5006 1.73598C37.7394 1.62672 38.0065 1.57007 38.3019 1.57007C38.6378 1.57007 38.9372 1.64291 39.2002 1.78859L39.1922 1.79264Z" fill="#0B173E"/>
</svg>
